<?xml version="1.0" encoding="UTF-8" standalone="no"?> <svg height="512pt" fill="#ffc107" viewBox="0 0 512 512" width="512pt" xmlns="http://www.w3.org/2000/svg"><path d="m264.363281 62.527344-8.363281-5.613282-8.363281 5.613282c-2.722657 1.828125-66.636719 45.410156-66.636719 102.453125 0 46.832031 43.066406 84.582031 60 97.613281v37.386719h30v-37.386719c16.933594-13.03125 60-50.78125 60-97.613281 0-57.042969-63.914062-100.625-66.636719-102.453125zm6.636719 160.121094v-87.667969h-30v87.691406c-14.921875-15.21875-30-36.285156-30-57.691406 0-30.9375 30.074219-59.132813 45.070312-71.261719 17.484376 14.109375 44.929688 42.382812 44.929688 71.261719 0 22.320312-15.648438 43.207031-30 57.667969zm0 0"/><path d="m451 149.980469h61v30h-61zm0 0"/><path d="m0 149.980469h61v30h-61zm0 0"/><path d="m432.363281 249.484375 51.960938 30-15 25.980469-51.960938-30zm0 0"/><path d="m79.625 80.472656-51.960938-30 15-25.980468 51.960938 30zm0 0"/><path d="m469.335938 24.480469 15 25.980469-51.960938 30-15-25.980469zm0 0"/><path d="m94.625 275.480469-51.960938 30-15-25.980469 51.960938-30zm0 0"/><path d="m421 164.980469c0-103.957031-95.167969-183.277344-200.40625-161.300781-64.753906 13.523437-115.824219 66.644531-127.089844 132.1875-12.964844 75.460937 25.605469 144.207031 87.496094 175.929687v50.183594h-30v30h30v30h-30v30h60v60h90v-60h60v-30h-30v-30h30v-30h-30v-50.175781c54.988281-28.09375 90-84.683594 90-146.824219zm-150 317h-30v-30h30zm30-60h-90v-30h90zm8.984375-133.402344-8.984375 3.933594v69.46875h-90v-69.46875l-8.984375-3.933594c-57.121094-25-89.582031-85.707031-78.945313-147.628906 9.195313-53.511719 50.851563-96.875 103.65625-107.902344 86.359376-18.035156 164.273438 46.789063 164.273438 131.933594 0 53.542969-31.800781 102.058593-81.015625 123.597656zm0 0"/></svg>